# xmcd
#
# Track frame offsets:
#       150
#       14674
#       31914
#       46337
#       64034
#       79740
#       114525
#       135232
#       162485
#       177741
#       208671
#       235769
#
# Disc length: 3598 seconds
#
# Revision: 0
# Processed by: cddbd v1.5.1PL0 Copyright (c) Steve Scherf et al.
# Submitted via: CD-DA_X-Tractor v0.24
#
DISCID=a00e0c0c
DTITLE=Banda D'Alen - Foram-se os homens ao mar
DYEAR=2005
DGENRE=
TTITLE0=Mourisco do Canical
TTITLE1=Foram-se os homens ao mar
TTITLE2=O ABC dos amores
TTITLE3=Rajao
TTITLE4=Milagre de Nossas Senhora do Monte
TTITLE5=Cantigo De Amor
TTITLE6=Baile do Paspalhao
TTITLE7=Oh trocador da viola
TTITLE8=Bailinho
TTITLE9=Os Escravos
TTITLE10=Saco de Cantigas
TTITLE11=Toada triste
EXTD=
EXTT0=
EXTT1=
EXTT2=
EXTT3=
EXTT4=
EXTT5=
EXTT6=
EXTT7=
EXTT8=
EXTT9=
EXTT10=
EXTT11=
PLAYORDER=
